# xmcd
#
# Track frame offsets: 
#        150
#        18230
#        36956
#        57161
#        78366
#        96865
#        115799
#        137316
#        156243
#        173748
#        191198
#        209333
#
# Disc length: 3055 seconds
#
# Revision: 5
# Processed by: cddbd v1.5.2PL0 Copyright (c) Steve Scherf et al.
# Submitted via: ExactAudioCopy v0.90b4
#
DISCID=980bed0c
DTITLE=Luis Miguel Del Amargue - Te Echo De Menos
DYEAR=2000
DGENRE=Latin
TTITLE0=Te Echo De Menos
TTITLE1=No Llores Por Mi
TTITLE2=Me Vas A Extrañar
TTITLE3=Soledad
TTITLE4=No La Mates
TTITLE5=Te Extraño Mi Amor
TTITLE6=No Puedo Vivir Sin Ti
TTITLE7=Niña Coqueta
TTITLE8=Penas
TTITLE9=Yo Me Enamoré
TTITLE10=La Chismosa
TTITLE11=Bailar Pegao
EXTD=YEAR: 2000
EXTT0=
EXTT1=
EXTT2=
EXTT3=
EXTT4=
EXTT5=
EXTT6=
EXTT7=
EXTT8=
EXTT9=
EXTT10=
EXTT11=
PLAYORDER=
